Coordinates
version=1
nRows=4
nColumns=40
inDegrees=yes

Units are S.I. units (second, meters, Newtons, ...)
If the header above contains a line with 'inDegrees', this indicates whether rotational values are in degrees (yes) or radians (no).

endheader
time	pelvis_tilt	pelvis_list	pelvis_rotation	pelvis_tx	pelvis_ty	pelvis_tz	hip_flexion_r	hip_adduction_r	hip_rotation_r	knee_angle_r	knee_angle_r_beta	ankle_angle_r	subtalar_angle_r	mtp_angle_r	hip_flexion_l	hip_adduction_l	hip_rotation_l	knee_angle_l	knee_angle_l_beta	ankle_angle_l	subtalar_angle_l	mtp_angle_l	lumbar_extension	lumbar_bending	lumbar_rotation	arm_flex_r	arm_add_r	arm_rot_r	elbow_flex_r	pro_sup_r	wrist_flex_r	wrist_dev_r	arm_flex_l	arm_add_l	arm_rot_l	elbow_flex_l	pro_sup_l	wrist_flex_l	wrist_dev_l
      8.97499999999999964473	     -8.10850219032844954370	      1.20627290646394103035	    177.64251250062392273321	      0.19955516295946770788	      0.85334500947481617406	     -0.90409935465220347961	      7.56389489765765965501	    -29.97753444448768078701	    -30.85332230094961758482	     14.71133400412928793344	      0.25676121573265714426	    -14.77329102632726787192	      0.00000000000000000000	      0.00000000000000000000	      3.90925759043444998042	    -34.66923057427833043675	    -36.46134827165688108153	     19.82447587948954392800	      0.34600237657929117097	     -8.88237591504366363893	      0.00000000000000000000	      0.00000000000000000000	    -32.64285837620554531213	      1.57659983172514950311	      0.96798047717168345105	     22.50321704089214946976	     -5.13595542886326938969	     52.00176204827209858195	      3.83993394019612654944	     19.08196283824624828185	      0.00000000000000000000	      0.00000000000000000000	     28.57212035953092410523	     -5.41972962663101132108	     83.01250217261831210180	      8.32482652215623453174	     82.52229423449372802679	      0.00000000000000000000	      0.00000000000000000000
      8.98000000000000042633	     -8.39825552900965455194	      0.99008256650515369390	    177.52071737210707169652	      0.19845626255771936508	      0.85429204829632421347	     -0.90396308310812378828	      7.02368345478281330685	    -30.07648341777512968065	    -30.78696995341083564313	     14.22996991187446624849	      0.24835982742193679629	    -14.93274951322013421873	      0.00000000000000000000	      0.00000000000000000000	      3.22308099172818485201	    -34.24851744317084722979	    -36.70886672778261328176	     19.45149718332658750342	      0.33949267029145202557	     -9.02644091696106087852	      0.00000000000000000000	      0.00000000000000000000	    -32.39543913369031002958	      1.38814671065814487783	      0.70956876259944667851	     22.17428891165984694567	     -5.42374478789409320001	     53.71120625001568527068	      4.09212514843058183800	     18.92740822894009511401	      0.00000000000000000000	      0.00000000000000000000	     28.22207504813287926027	     -5.57097166558801948355	     82.66766265273473379693	      8.44233281962361203909	     82.92718096637972280405	      0.00000000000000000000	      0.00000000000000000000
      8.98499999999999943157	     -8.58721888111230136076	      1.11257650349831060943	    177.57934045523163035796	      0.19728486502251207924	      0.85492058003560611468	     -0.90341848485412556968	      6.38562314136118214236	    -29.82171250064198630980	    -31.05124278889813638216	     13.65899532001225047395	      0.23839444084871028173	    -15.16286699891248801464	      0.00000000000000000000	      0.00000000000000000000	      2.81345009102113374766	    -34.25435950647149496717	    -36.73309893448261220783	     19.18000582190438052521	      0.33475425214391257844	     -9.01361455582060600022	      0.00000000000000000000	      0.00000000000000000000	    -32.07142578586453396383	      1.63113810253947755236	      0.57385580367241795230	     21.85775006761433303382	     -5.55977219016448387379	     53.79861643867288734100	      4.27093810815402363801	     18.67500179594972209429	      0.00000000000000000000	      0.00000000000000000000	     27.88045168560246267475	     -5.58206956075246019111	     82.60422433398204589139	      8.54158822020397145991	     82.92824033157302210384	      0.00000000000000000000	      0.00000000000000000000
      8.99000000000000021316	     -8.33178668149947299071	      1.32743548811285561051	    177.71933984514541293720	      0.19578885501290935189	      0.85481400567167287186	     -0.90248201506287506479	      6.19286034109457528274	    -29.48389123574020231899	    -31.35572553050172572853	     13.15034207322306514243	      0.22951676694127973177	    -15.32549400793085148109	      0.00000000000000000000	      0.00000000000000000000	      3.13416215169839329491	    -34.51210985601267822176	    -36.76481212651594887575	     19.38592653698425394282	      0.33834824662011753205	     -8.77906945000615479557	      0.00000000000000000000	      0.00000000000000000000	    -31.22856309325652901521	      2.05866854542662203187	      0.32515966728756390269	     21.75513271396077996656	     -5.33647090566959825253	     52.29292067596085757941	      3.81641546262672370915	     19.90945906062873049791	      0.00000000000000000000	      0.00000000000000000000	     27.25524132332549953617	     -5.14412175531287108043	     81.77889405099666930710	      7.82180330267350587548	     81.58956848578534959415	      0.00000000000000000000	      0.00000000000000000000
